<svg viewBox="0 0 200 248" fill="none" xmlns="http://www.w3.org/2000/svg" role="img" aria-label="IDENA">
  <defs>
    <linearGradient id="idena-blue-grad" x1="100" y1="18" x2="100" y2="118" gradientUnits="userSpaceOnUse">
      <stop offset="0" stop-color="#B8E4F9"/>
      <stop offset="0.45" stop-color="#5DBCEB"/>
      <stop offset="1" stop-color="#1E9FD4"/>
    </linearGradient>
  </defs>
  <g transform="translate(56 8)">
    <rect width="88" height="88" rx="17" fill="url(#idena-blue-grad)"/>
    <path d="M30 88H88V54.5C88 54.5 70.5 70 46.5 79.5C38.5 82.5 30 88 30 88Z" fill="#B5D434"/>
    <path d="M20.5 71.5C20.5 71.5 34 40.5 53.5 27.5C59.5 23.5 65.5 21.5 69 23.5C69 23.5 58.5 38.5 50.5 53C42.5 67.5 38.5 77 23 80.5C23 80.5 17 78.5 20.5 71.5Z" fill="#FFFFFF"/>
    <circle cx="57" cy="29.5" r="8.8" fill="#FFFFFF"/>
  </g>
  <text x="100" y="138" text-anchor="middle" fill="#111111" font-family="system-ui, -apple-system, Segoe UI, sans-serif" font-size="42" font-weight="800" letter-spacing="-0.5">idena</text>
  <text x="100" y="168" text-anchor="middle" fill="#555555" font-size="9.5" font-weight="600" letter-spacing="0.12em">LA NUTRITION ANIMALE INNOVANTE PAR NATURE</text>
</svg>
